# Blender v2.79 (sub 0) OBJ File: ''
# www.blender.org
o Cube_Cube.001
v -0.500000 -1.000000 0.500000
v -0.500000 0.000000 0.500000
v -0.500000 -1.000000 -0.500000
v -0.500000 0.000000 -0.500000
v 0.500000 -1.000000 0.500000
v 0.500000 0.000000 0.500000
v 0.500000 -1.000000 -0.500000
v 0.500000 0.000000 -0.500000
vt -1.010961 1.007644
vt -0.003527 0.000211
vt -0.003527 1.007645
vt -0.003527 -1.007222
vt 1.003906 0.000211
vt 2.011340 0.000212
vt 1.003906 1.007645
vt 1.003906 2.015078
vt 3.018774 0.000212
vt 2.011340 1.007645
vt -1.010960 0.000211
vt 1.003907 -1.007222
vt -0.003527 2.015078
vt 3.018773 1.007645
vn -1.0000 0.0000 0.0000
vn 0.0000 0.0000 -1.0000
vn 1.0000 0.0000 0.0000
vn 0.0000 0.0000 1.0000
vn 0.0000 -1.0000 0.0000
vn 0.0000 1.0000 0.0000
s off
f 2/1/1 3/2/1 1/3/1
f 4/4/2 7/5/2 3/2/2
f 8/6/3 5/7/3 7/5/3
f 6/8/4 1/3/4 5/7/4
f 7/5/5 1/3/5 3/2/5
f 4/9/6 6/10/6 8/6/6
f 2/1/1 4/11/1 3/2/1
f 4/4/2 8/12/2 7/5/2
f 8/6/3 6/10/3 5/7/3
f 6/8/4 2/13/4 1/3/4
f 7/5/5 5/7/5 1/3/5
f 4/9/6 2/14/6 6/10/6
